HIERARCHY
ROOT Hips
{
	OFFSET 0.00 0.00 0.00
	CHANNELS 6 Xposition Yposition Zposition Xrotation Yrotation Zrotation
	JOINT Spine
	{
		OFFSET 0.00000 7.50895 0.00000
		CHANNELS 3 Xrotation Yrotation Zrotation
		JOINT Head
		{
			OFFSET 0.00000 13.86115 0.00000
			CHANNELS 3 Xrotation Yrotation Zrotation
			End Site
			{
				OFFSET 0.00000 4.52755 0.00000
			}
		}
		JOINT LeftShoulder
		{
			OFFSET 0.00000 8.20478 0.00000
			CHANNELS 3 Xrotation Yrotation Zrotation
			JOINT LeftArm
			{
				OFFSET 6.63596 0.00000 0.00000
				CHANNELS 3 Xrotation Yrotation Zrotation
				JOINT LeftForeArm
				{
					OFFSET 10.27422 0.00000 0.00000
					CHANNELS 3 Yrotation Zrotation Xrotation
					JOINT LeftHand
					{
						OFFSET 8.52215 0.00000 0.00000
						CHANNELS 3 Xrotation Yrotation Zrotation
						JOINT LeftHandThumb1
						{
							OFFSET 0.00000 0.00000 0.00000
							CHANNELS 3 Xrotation Zrotation Yrotation
							End Site
							{
								OFFSET 0.00000 0.00000 3.93700
							}
						}
						End Site
						{
							OFFSET 3.93700 0.00000 0.00000
						}
					}
				}
			}
		}
		JOINT RightShoulder
		{
			OFFSET 0.00000 8.20478 0.00000
			CHANNELS 3 Xrotation Yrotation Zrotation
			JOINT RightArm
			{
				OFFSET -6.63596 0.00000 0.00000
				CHANNELS 3 Xrotation Yrotation Zrotation
				JOINT RightForeArm
				{
					OFFSET -10.27422 0.00000 0.00000
					CHANNELS 3 Yrotation Zrotation Xrotation
					JOINT RightHand
					{
						OFFSET -8.52215 0.00000 0.00000
						CHANNELS 3 Xrotation Yrotation Zrotation
						JOINT RightHandThumb1
						{
							OFFSET 0.00000 0.00000 0.00000
							CHANNELS 3 Xrotation Zrotation Yrotation
							End Site
							{
								OFFSET 0.00000 0.00000 3.93700
							}
						}
						End Site
						{
							OFFSET -3.93700 0.00000 0.00000
						}
					}
				}
			}
		}
	}
	JOINT LeftUpLeg
	{
		OFFSET 3.00056 0.00000 0.00000
		CHANNELS 3 Xrotation Yrotation Zrotation
		JOINT LeftLeg
		{
			OFFSET 0.00000 -16.49085 0.00000
			CHANNELS 3 Xrotation Yrotation Zrotation
			JOINT LeftFoot
			{
				OFFSET 0.00000 -14.55658 0.00000
				CHANNELS 3 Xrotation Yrotation Zrotation
				JOINT LeftToeBase
				{
					OFFSET 0.00000 -1.25038 4.66650
					CHANNELS 3 Xrotation Yrotation Zrotation
					End Site
					{
						OFFSET 0.00000 0.00000 2.95275
					}
				}
			}
		}
	}
	JOINT RightUpLeg
	{
		OFFSET -3.00056 0.00000 0.00000
		CHANNELS 3 Xrotation Yrotation Zrotation
		JOINT RightLeg
		{
			OFFSET 0.00000 -16.49085 0.00000
			CHANNELS 3 Xrotation Yrotation Zrotation
			JOINT RightFoot
			{
				OFFSET 0.00000 -14.55658 0.00000
				CHANNELS 3 Xrotation Yrotation Zrotation
				JOINT RightToeBase
				{
					OFFSET 0.00000 -1.25038 4.66650
					CHANNELS 3 Xrotation Yrotation Zrotation
					End Site
					{
						OFFSET 0.00000 0.00000 2.95275
					}
				}
			}
		}
	}
}
MOTION
Frames: 7
Frame Time: 0.008333
 -3.7963 32.9293 -7.3215 10.7940 2.3657 -1.0180 -12.3458 4.1496 1.8217 -9.4317 -4.4259 5.1635 8.7344 19.6220 29.3902 -29.7575 -4.9164 -29.3380 -14.2404 -0.0000 10.8627 3.1016 23.4869 -7.7427 33.1476 -0.0000 26.2537 -23.6787 -7.1113 -39.2874 -2.2038 -9.3541 31.9787 15.1551 -0.0000 29.5611 1.2242 -8.6970 8.0442 32.8623 0.0000 -24.3270 -4.6043 9.4594 1.0842 -1.4792 0.0000 -0.0000 -10.1909 9.1952 -8.0698 10.4044 0.0000 -0.0000 -6.6777 -6.9560 -0.9035 2.9243 0.0000 -0.0000 -10.6039 -9.8768 -0.1098 1.8703 -0.0000 0.0000
 -3.7937 32.9293 -7.3184 10.7856 2.3613 -1.0191 -12.3483 4.1428 1.8173 -9.3667 -4.4229 5.1825 8.7141 19.6089 29.4138 -29.7147 -4.9125 -29.3310 -14.2519 -0.0000 10.8578 3.0967 23.4693 -7.7357 33.1476 -0.0000 26.2537 -23.6679 -7.1033 -39.2523 -2.1892 -9.3308 31.9379 15.1586 -0.0000 29.5241 1.2297 -8.7004 8.0766 32.8623 0.0000 -24.3270 -4.5846 9.4582 1.0792 -1.4898 0.0000 0.0000 -10.1911 9.1976 -8.0397 10.4139 -0.0000 -0.0000 -6.6590 -6.9631 -0.9053 2.9093 -0.0000 -0.0000 -10.5790 -9.8622 -0.1492 1.7991 0.0000 0.0000
 -3.7911 32.9291 -7.3153 10.7872 2.3558 -1.0178 -12.3656 4.1460 1.8163 -9.2966 -4.4119 5.1811 8.7161 19.5966 29.4181 -29.7419 -4.8837 -29.3262 -14.2695 -0.0000 10.9085 3.0780 23.4963 -7.6815 33.1476 -0.0000 26.2537 -23.6694 -7.0972 -39.2640 -2.2030 -9.3270 31.9448 15.1538 -0.0000 29.5574 1.2255 -8.6865 8.0621 32.8623 0.0000 -24.3270 -4.5755 9.4478 1.0743 -1.4973 0.0000 -0.0000 -10.2055 9.2177 -8.0524 10.4374 0.0000 0.0000 -6.6557 -6.9590 -0.9086 2.9100 0.0000 -0.0000 -10.5885 -9.8781 -0.1293 1.8161 0.0000 0.0000
 -3.7882 32.9288 -7.3130 10.7855 2.3542 -1.0160 -12.3747 4.1534 1.8135 -9.2323 -4.4273 5.1676 8.7758 19.6055 29.3965 -29.7846 -4.8929 -29.2973 -14.2628 -0.0000 10.8693 3.0696 23.4863 -7.6637 33.1476 -0.0000 26.2537 -23.6607 -7.0920 -39.2599 -2.2151 -9.3474 31.9287 15.1755 -0.0000 29.5773 1.2237 -8.6564 8.0776 32.8623 0.0000 -24.3270 -4.5691 9.4607 1.0672 -1.4952 0.0000 -0.0000 -10.2097 9.1980 -8.0518 10.4292 -0.0000 0.0000 -6.6498 -6.9650 -0.9160 2.9079 0.0000 0.0000 -10.5854 -9.8676 -0.1529 1.7844 0.0000 -0.0000
 -3.7853 32.9284 -7.3103 10.7804 2.3616 -1.0145 -12.3787 4.1509 1.8071 -9.1765 -4.4243 5.1793 8.7639 19.5902 29.4039 -29.7771 -4.8933 -29.2808 -14.2686 -0.0000 10.8736 3.0693 23.4712 -7.6675 33.1476 -0.0000 26.2537 -23.6578 -7.0978 -39.2582 -2.2194 -9.3279 31.9164 15.1715 -0.0000 29.5780 1.2288 -8.6577 8.1097 32.8623 0.0000 -24.3270 -4.5563 9.4305 1.0597 -1.4988 -0.0000 0.0000 -10.2280 9.2046 -7.9695 10.4582 -0.0000 -0.0000 -6.6362 -6.9597 -0.9221 2.9030 0.0000 0.0000 -10.5794 -9.8856 -0.1410 1.7570 0.0000 0.0000
 -3.7822 32.9281 -7.3074 10.7748 2.3598 -1.0193 -12.3860 4.1434 1.8058 -9.1038 -4.3949 5.2139 8.7173 19.5560 29.4181 -29.6402 -4.9668 -29.2409 -14.1977 -0.0000 10.8163 2.9964 23.4184 -7.5030 33.1476 -0.0000 26.2537 -23.6382 -7.0984 -39.2446 -2.2478 -9.3092 31.8999 15.1475 -0.0000 29.5948 1.2286 -8.6360 8.1287 32.8623 0.0000 -24.3270 -4.5418 9.4179 1.0591 -1.5051 -0.0000 -0.0000 -10.2138 9.2312 -8.0185 10.4181 0.0000 0.0000 -6.6228 -6.9647 -0.9230 2.8987 0.0000 0.0000 -10.5970 -9.8769 -0.1072 1.8333 0.0000 -0.0000
 -3.7779 32.9282 -7.3050 10.7731 2.3663 -1.0112 -12.3965 4.1455 1.7937 -9.0315 -4.3716 5.2311 8.7381 19.5668 29.4090 -29.6715 -5.0008 -29.2245 -14.1742 -0.0000 10.8226 2.9857 23.4170 -7.4769 33.1476 -0.0000 26.2537 -23.6386 -7.0898 -39.2368 -2.2291 -9.2937 31.8747 15.1468 -0.0000 29.5868 1.2325 -8.6373 8.1525 32.8623 0.0000 -24.3270 -4.5324 9.3978 1.0363 -1.4996 -0.0000 -0.0000 -10.2108 9.2985 -8.0441 10.3887 0.0000 0.0000 -6.6132 -6.9676 -0.9400 2.8856 -0.0000 0.0000 -10.5868 -9.8985 -0.0861 1.8077 -0.0000 0.0000
